#!OML:ASF F:\VICON\USERDATA\INSTALL\rory3\rory3.ASF
:FULLY-SPECIFIED
:DEGREES
28
root 0.4962187301414156 17.450779613101805 8.4007300026822 2.7204843566946653 7.1969253648756 0.837242140452966
lfemur -20.482175129824224 -13.331427644590152 -25.101386790384726
ltibia 4.889083122584886
lfoot -17.742004446821454 0.33435111832576325
ltoes -8.69088440982574
rfemur -17.90429979427916 -6.637897752539363 18.818378155092507
rtibia 87.03669435970083
rfoot 45.27480942711554 -8.44849901260524
rtoes 45.89165327129162
lowerback nan 2.0842436523066707 3.6796455207161514
upperback -0.6879314870208568 2.0904364766101797 -0.4655483551543875
thorax -9.383277619919744 0.89536016513078 -0.8602514353226756
lowerneck -20.718746142679286 -5.088544152004192 -2.0415535864453815
upperneck 12.359997013279497 -8.436412172179892 4.810372514392897
head 7.666782714119062 -3.209510299916101 0.9564010703865061
lclavicle 1.3401256709463525e-14 6.831895098471287e-15
lhumerus -54.373795506648406 -2.733371812845939 80.9666855770101
lradius 112.32689691487445
lwrist 32.165121371824185
lhand -26.68777100288773 6.791256440528377
lfingers nan
lthumb 0.10721940784397499 37.094105113934056
rclavicle 1.3209699322908813e-14 8.14019552135006e-15
rhumerus -42.664586984858104 10.397325225620888 -94.07942231914286
rradius 112.89760799007004
rwrist -23.29501884505725
rhand -15.942316647497645 nan
rfingers nan
rthumb 10.386407135155455 10.151471109256816
29
root 0.5302416008494705 17.51662692505339 9.186584792334573 2.446133275582755 5.319495057594913 0.6968221377823856
lfemur -19.031562268858902 -12.569995524613407 -25.02702404812552
ltibia 0.0699705466589009
lfoot -18.227076503895937 1.0288771899529507
ltoes -8.121122580113493
rfemur -19.337737572197806 -5.660658678051043 18.6685725606432
rtibia 88.23885148940171
rfoot 44.11296856515873 -9.015485554364105
rtoes 49.48290566207106
lowerback nan 2.3407351078980825 3.622179738349135
upperback -0.47359245625936536 2.4380685613214794 -0.5309976057390957
thorax -8.719127773330278 1.099312165663982 -0.9324401614734119
lowerneck -21.091154985674404 -5.105910921268154 -2.1178552478269794
upperneck 12.65846811840181 -8.302833785230066 4.757003569231787
head 7.752917162038488 -3.1323238644051017 0.988430113337745
lclavicle -4.484831849640387e-14 1.429884817134744e-14
lhumerus -55.02255849541835 -2.0895170869880726 80.39353592029742
lradius 112.8829750959138
lwrist 32.12986394590618
lhand -26.094812507007735 6.045394733899522
lfingers nan
lthumb 0.7088783049890522 36.33805800211917
rclavicle -4.281201581637583e-14 1.6081887660540288e-14
rhumerus -43.39645585586129 10.196848143592556 -93.55216450845172
rradius 113.17506903064168
rwrist -22.779537411689464
rhand -17.06551593208114 nan
rfingers nan
rthumb 9.345817351009979 10.221395789044687
30
root 0.5164608932686743 17.55244243965204 9.780909569807026 3.1876829680599768 6.465314222420043 0.4769971097387571
lfemur -18.737048023115594 -13.087164178853842 -24.692772690967598
ltibia -4.271408980117364
lfoot -17.985783963359665 0.4440460843207674
ltoes -6.842293802127933
rfemur -21.823784500606408 -5.881369367958412 19.382673627642227
rtibia 90.07639080372937
rfoot 37.74639522488392 -10.446901652649906
rtoes 32.3616276602135
lowerback nan 2.148022829334131 3.7196380358146657
upperback -0.7652165030850214 2.207333340404898 -0.5237123353338446
thorax -9.073903168870794 0.9847812911717311 -0.9041814816455029
lowerneck -21.19641080490272 -5.196671243309867 -2.120706980877052
upperneck 12.501028636960553 -8.242911398531357 4.574408374008269
head 7.666300621442997 -3.1117018657873285 0.9969320371696393
lclavicle -3.036614812282892e-14 4.585834436149349e-14
lhumerus -55.51152730267234 -1.5941591312456422 80.18781413898753
lradius 113.32585256278304
lwrist 32.058545239811636
lhand -26.379431774049166 5.834888209862152
lfingers nan
lthumb 0.4514524131520672 36.09969687801339
rclavicle -2.845370742906385e-14 4.80565385296554e-14
rhumerus -44.06984140336094 10.362085835629278 -93.7450936325015
rradius 113.80414492995932
rwrist -22.90396330655185
rhand -18.440760260252386 nan
rfingers nan
rthumb 8.053466200170263 5.351321855429234
31
root 0.520716305088778 17.598633194922645 9.676656011740368 3.3981692114346695 6.377100419219999 0.06586634223718235
lfemur -18.073717709064017 -12.995146668428399 -24.30488597504602
ltibia -8.354587997712429
lfoot -17.763110575673405 0.4454833602913979
ltoes -7.785963646535996
rfemur -23.824493645657235 -5.8798484384371825 19.89407511683588
rtibia 92.38395839677736
rfoot 37.68059189291366 -10.640018912602919
rtoes 36.9810593941162
lowerback nan 2.0944557537206276 3.9508065490216286
upperback -0.8216730279844003 2.2082928681200387 -0.5269906540014677
thorax -9.167657060176504 1.0004931058223607 -0.8942788969502224
lowerneck -21.405346832737408 -5.158595218210423 -2.0973399243245217
upperneck 12.532528104384845 -8.157586672931043 4.517480783347124
head 7.657599699660347 -3.071324248556496 0.9998101453267162
lclavicle -4.8736086023186e-14 1.2979706393478393e-14
lhumerus -55.759198588364356 -1.2502230452633238 79.97708482030218
lradius 113.77029346883769
lwrist 31.911932460535144
lhand -27.339766348079912 6.551217411762367
lfingers nan
lthumb -0.4477998211460632 36.812175851169044
rclavicle -4.476556541295951e-14 1.5212279649097613e-14
rhumerus -44.95952327235645 10.876854000684938 -94.59868789445814
rradius 113.77746359135492
rwrist -14.382555948163459
rhand -23.47747525965837 nan
rfingers nan
rthumb 3.2462137513834675 -1.1625794877680402
32
root 0.5205302861118796 17.654276231860813 10.080288860562133 3.3134887518506684 5.600070016885408 -0.29945030237510517
lfemur -17.04070080357144 -12.437100747249128 -23.9954237460589
ltibia -11.813098525093082
lfoot -17.545508613387252 0.8901787853642702
ltoes -9.727630259213337
rfemur -25.48056349767353 -5.604250431891517 20.21274637948251
rtibia 95.20871537496978
rfoot 37.04088287605044 -11.141526931564737
rtoes 43.003164756533764
lowerback nan 2.1611214532715515 4.08207834594182
upperback -0.7446479889182844 2.364243514191261 -0.5500034706463934
thorax -9.1039417584047 1.0425409383630204 -0.858710723704756
lowerneck -21.69573076792871 -5.0598135635351 -2.118262139705255
upperneck 12.472226278279646 -8.080891443215215 4.537174969919027
head 7.6886640194560805 -2.9866254858352126 1.0354840810639596
lclavicle 2.3927298065312466e-15 3.317276467566515e-14
lhumerus -56.09441392932247 -0.780224269173396 79.78138144873338
lradius 114.22370886285314
lwrist 31.838267564588747
lhand -27.338523668292478 6.2974869734307735
lfingers nan
lthumb -0.4273852083830041 36.52818480138991
rclavicle 6.213100843062918e-15 3.510169513462006e-14
rhumerus -45.272579953084666 10.705811063803349 -94.13048525277097
rradius 113.81544428050329
rwrist -16.846243644540017
rhand -21.211326799954005 nan
rfingers nan
rthumb 5.425708948674815 2.199325365051939
33
root 0.522187540291271 17.708336276870764 10.881969523571726 3.1520350247303233 5.042061080130096 -0.5838901648011512
lfemur -15.983793118363547 -12.00898717457002 -23.840612648755524
ltibia -14.872216738792744
lfoot -17.292875853177435 1.3578757751113368
ltoes -11.748505401908552
rfemur -27.152314499428233 -5.527524772315223 20.421128839458802
rtibia 98.34233569997619
rfoot 35.725739285203744 -11.887736922970705
rtoes 45.46167871331403
lowerback nan 2.2235251144744588 4.088939138050463
upperback -0.6889800752632074 2.5278431325741817 -0.5578473125242143
thorax -9.175143037413406 1.1084250203174748 -0.7517682320772305
lowerneck -21.630562813814215 -4.9726493766294935 -2.1373098631672063
upperneck 12.108298836809507 -7.948799584176214 4.544635304117143
head 7.536396713358213 -2.8788219099638397 1.0707255130612847
lclavicle 1.0723853877515463e-14 2.5236406823046134e-14
lhumerus -56.32444564573754 -0.46646288591618834 79.72305244741045
lradius 114.69480580324621
lwrist 31.828273304587892
lhand -26.254989534467978 6.056239250932121
lfingers nan
lthumb 0.6580191540308535 36.24315722586014
rclavicle 1.4192854511524394e-14 2.728260253921662e-14
rhumerus -45.084723363216824 9.68236195781368 -92.40516720132653
rradius 114.03705127031732
rwrist -25.168892677651453
rhand -15.227307211072985 nan
rfingers nan
rthumb 11.148031666272786 12.169017659590999
34
root 0.52160812420002 17.73496404913066 11.697930745593048 2.9707365763728086 4.7144211661347395 -0.9830115685323257
lfemur -14.960851547502328 -11.669192374166792 -23.561663339919775
ltibia -17.173197792605592
lfoot -16.958767232296637 1.8587965237720887
ltoes -13.299121084794908
rfemur -28.849205443385735 -5.691537776422912 20.829351253790016
rtibia 101.79864246238631
rfoot 34.39936045083982 -12.918387343800976
rtoes 44.71509187703917
lowerback nan 2.278104542602871 4.410023180928653
upperback -0.5702732127966118 2.616174770282414 -0.5144304703834321
thorax -8.898563601784232 1.1139252750774733 -0.7965552273156928
lowerneck -21.27799399176455 -4.915531359312335 -2.1504056094118593
upperneck 11.26681847581715 -7.865984929092592 4.626827688482322
head 7.1918633810274395 -2.8058336142003575 1.1213675882679728
lclavicle 2.6847613219882186e-15 1.4708224398914694e-14
lhumerus -56.35606154748033 -0.3630996227271428 79.79016369257131
lradius 115.06723837659895
lwrist 31.852219416125372
lhand -25.987146493819186 5.933934756650578
lfingers nan
lthumb 0.9452108412636384 36.090612879960595
rclavicle 5.8733977305681975e-15 1.6970820107309074e-14
rhumerus -45.88438628953982 9.371411673610037 -92.8650560222006
rradius 113.8782481587462
rwrist -24.290727024542658
rhand -15.006332084218462 nan
rfingers nan
rthumb 11.305860464784113 12.656998530410739
35
root 0.5211691087450329 17.75166290507483 12.727981396323706 2.840900428186591 4.366639795908655 -1.1917375036675382
lfemur -13.85407302257245 -11.441276237529243 -23.507501031870305
ltibia -18.98106240632886
lfoot -16.331314560864506 2.4267082211950974
ltoes -13.68065249677359
rfemur -30.57511353535464 -5.7614806770424 21.029288123175476
rtibia 105.56059872625775
rfoot 33.467242646431075 -13.721349627590897
rtoes 42.660054544830686
lowerback nan 2.3099291639110096 4.4909208656840836
upperback -0.33385860792320854 2.657202603883892 -0.5209231078059249
thorax -8.370192582399246 1.140996811623321 -0.7890582494656593
lowerneck -21.441756151583885 -5.017406917654932 -2.151187281199232
upperneck 10.749908286795833 -7.951233260545655 4.6946458104853415
head 7.07162129552927 -2.846261262241832 1.1347474279899175
lclavicle -8.376015959541764e-15 3.0447203752975406e-14
lhumerus -56.29459731040718 -0.3678282769631638 79.87819739518974
lradius 115.26612882129488
lwrist 31.927609476398263
lhand -26.302230784663298 6.30605990001371
lfingers nan
lthumb 0.6639993910996409 36.43799354872263
rclavicle -6.775094316123746e-15 3.2632646451966905e-14
rhumerus -46.542191500087924 8.764796998849816 -92.59289721663932
rradius 113.43402416467575
rwrist -23.051382131130325
rhand -13.772888268361166 nan
rfingers nan
rthumb 12.47463738886138 14.296120993517242
